<?xml version="1.0" encoding="UTF-8"?>
<svg version="1.1" xmlns="http://www.w3.org/2000/svg" width="332" height="316">
<path d="M0 0 C109.56 0 219.12 0 332 0 C332 104.28 332 208.56 332 316 C222.44 316 112.88 316 0 316 C0 211.72 0 107.44 0 0 Z " fill="#0E0D0D" transform="translate(0,0)"/>
<path d="M0 0 C39.27 0 78.54 0 119 0 C119.33 18.48 119.66 36.96 120 56 C120.99 57.98 120.99 57.98 122 60 C121.01 60.99 121.01 60.99 120 62 C119.67 80.48 119.34 98.96 119 118 C79.73 118 40.46 118 0 118 C-0.33 99.52 -0.66 81.04 -1 62 C-1.66 60.68 -2.32 59.36 -3 58 C-2.34 57.34 -1.68 56.68 -1 56 C-0.67 37.52 -0.34 19.04 0 0 Z " fill="#10100F" transform="translate(113,127)"/>
<path d="M0 0 C2.65694438 0.16605902 3.76383679 0.78913999 5.75 2.5625 C6.36875 3.2740625 6.36875 3.2740625 7 4 C7.515625 3.649375 8.03125 3.29875 8.5625 2.9375 C12.09964462 1.57705976 14.37061908 2.0278444 18 3 C20.25 5.5 20.25 5.5 22 8 C22.99 8.33 23.98 8.66 25 9 C25.33 8.01 25.66 7.02 26 6 C29.05097265 5.71217239 31.95738549 5.57995764 35 6 C37.79392768 8.71175333 37.96553639 10.40263075 38.1875 14.25 C36.7126346 18.90746969 34.31447384 21.36620961 30.91015625 24.7890625 C28.90621775 27.1085496 27.96776879 29.11189418 27 32 C23.7 31.67 20.4 31.34 17 31 C17 30.34 17 29.68 17 29 C16.030625 29.04125 15.06125 29.0825 14.0625 29.125 C11.01062768 29.15576484 8.49292185 28.64176868 5.5625 27.8125 C1.30837061 26.77945678 -0.91729358 27.42192013 -4.82421875 29.19921875 C-8.2686293 30.46691025 -11.74644189 30.5678011 -15.38671875 30.7890625 C-17.98973128 30.99917113 -20.45161055 31.43981349 -23 32 C-23.30292969 31.48050781 -23.60585937 30.96101563 -23.91796875 30.42578125 C-26.54769425 26.04829973 -29.20891017 22.48370417 -33 19 C-35 17 -35 17 -35.375 13.625 C-35 10 -35 10 -33.4375 7.5625 C-30.12800365 5.44102798 -27.85506762 5.57165915 -24 6 C-23.34 6.66 -22.68 7.32 -22 8 C-21.01 8 -20.02 8 -19 8 C-18.443125 7.175 -17.88625 6.35 -17.3125 5.5 C-15 3 -15 3 -13.10546875 2.66796875 C-11.0524385 2.68701356 -9.04468669 2.82029121 -7 3 C-5.68 3 -4.36 3 -3 3 C-2.505 2.484375 -2.01 1.96875 -1.5 1.4375 C-1.005 0.963125 -0.51 0.48875 0 0 Z " fill="#CBA969" transform="translate(171,61)"/>
<path d="M0 0 C7.0228125 -0.0928125 7.0228125 -0.0928125 14.1875 -0.1875 C15.65598389 -0.21481201 17.12446777 -0.24212402 18.63745117 -0.27026367 C19.80252197 -0.27775635 20.96759277 -0.28524902 22.16796875 -0.29296875 C23.35672607 -0.3086792 24.5454834 -0.32438965 25.77026367 -0.34057617 C31.14682535 0.22638305 34.50941382 3.01075865 38 7 C39.36636296 11.09908888 39.75758529 14.72353722 39 19 C36.99517169 22.5264081 34.75033496 25.45379618 30.796875 26.6875 C30.20390625 26.790625 29.6109375 26.89375 29 27 C30.18228785 31.0394835 31.77484682 34.39580925 33.91796875 38.0078125 C36.82634702 43.36258837 38.94337957 49.00181129 40 55 C37.36 55 34.72 55 32 55 C29.30294878 50.44291346 26.99861352 45.90568773 25 41 C24.10488003 38.85386899 23.20899954 36.70805509 22.3125 34.5625 C21.54131798 32.70847833 20.77036657 30.85436064 20 29 C16.37 28.67 12.74 28.34 9 28 C9 36.91 9 45.82 9 55 C6.03 55 3.06 55 0 55 C0 36.85 0 18.7 0 0 Z " fill="#DBDBDB" transform="translate(152,153)"/>
<path d="M0 0 C39.27 0 78.54 0 119 0 C119.33 18.48 119.66 36.96 120 56 C120.99 57.98 120.99 57.98 122 60 C121.01 60.99 121.01 60.99 120 62 C119.67 80.48 119.34 98.96 119 118 C79.73 118 40.46 118 0 118 C-0.33 99.52 -0.66 81.04 -1 62 C-1.66 60.68 -2.32 59.36 -3 58 C-2.34 57.34 -1.68 56.68 -1 56 C-0.67 37.52 -0.34 19.04 0 0 Z M3 2 C3 39.29 3 76.58 3 115 C40.29 115 77.58 115 116 115 C116 77.71 116 40.42 116 2 C78.71 2 41.42 2 3 2 Z " fill="#9B7F42" transform="translate(113,127)"/>
<path d="M0 0 C0.99 0 1.98 0 3 0 C1.59012409 5.169545 -1.86322045 8.75341352 -6 12 C-8.2265625 12.703125 -8.2265625 12.703125 -10 13 C-10 13.66 -10 14.32 -10 15 C-19.36773751 18.48566977 -27.89871501 17.90055071 -37 14 C-37 34.13 -37 54.26 -37 75 C-38.32 75 -39.64 75 -41 75 C-41.33 70.38 -41.66 65.76 -42 61 C-48.6 67.6 -55.2 74.2 -62 81 C-60.18854312 84.62291376 -58.91100753 86.30740466 -56.0859375 89.0390625 C-55.32539062 89.78414063 -54.56484375 90.52921875 -53.78125 91.296875 C-52.9871875 92.06515625 -52.193125 92.8334375 -51.375 93.625 C-49.79497816 95.15421728 -48.21921026 96.68784633 -46.6484375 98.2265625 C-45.94895996 98.90283691 -45.24948242 99.57911133 -44.52880859 100.27587891 C-43 102 -43 102 -43 104 C-46.88745127 103.45142713 -48.52488032 101.75907776 -51.15234375 98.9296875 C-51.92900391 98.11628906 -52.70566406 97.30289063 -53.50585938 96.46484375 C-55.12903114 94.73606804 -56.74622251 93.00165802 -58.35742188 91.26171875 C-59.5243457 90.04548828 -59.5243457 90.04548828 -60.71484375 88.8046875 C-61.41730225 88.05171387 -62.11976074 87.29874023 -62.84350586 86.52294922 C-64.94045189 84.69120082 -64.94045189 84.69120082 -67.76782227 85.26220703 C-68.87275024 85.62741455 -68.87275024 85.62741455 -70 86 C-69.58600064 90.45896585 -66.48535465 92.85988267 -63.43359375 95.7890625 C-62.88010757 96.33356049 -62.3266214 96.87805847 -61.75636292 97.4390564 C-59.99040127 99.17502 -58.2148741 100.90072846 -56.4375 102.625 C-54.65747331 104.357281 -52.87974652 106.09169238 -51.10792542 107.83236694 C-50.00562678 108.91482543 -48.89842013 109.99231212 -47.78599548 111.06436157 C-46.48602531 112.3386243 -45.2375389 113.66502231 -44 115 C-44 115.66 -44 116.32 -44 117 C-47.01647998 115.64451035 -49.14376688 114.11944709 -51.49926758 111.80712891 C-52.16287796 111.15950592 -52.82648834 110.51188293 -53.51020813 109.84463501 C-54.21453476 109.14567108 -54.91886139 108.44670715 -55.64453125 107.7265625 C-56.37371262 107.00640961 -57.10289398 106.28625671 -57.85417175 105.54428101 C-59.39077185 104.02217102 -60.92459036 102.49724854 -62.45581055 100.96972656 C-64.80909068 98.62839201 -67.18037388 96.30635386 -69.55273438 93.984375 C-71.04281194 92.50375586 -72.53178323 91.02202238 -74.01953125 89.5390625 C-74.73397903 88.84414703 -75.44842682 88.14923157 -76.18452454 87.43325806 C-76.83237411 86.77933075 -77.48022369 86.12540344 -78.14770508 85.45166016 C-78.72410233 84.88033356 -79.30049957 84.30900696 -79.8943634 83.72036743 C-81 82 -81 82 -80.87844849 80.00772095 C-79.83975793 77.63376185 -78.63052095 76.25626948 -76.79711914 74.42480469 C-75.78585716 73.40419952 -75.78585716 73.40419952 -74.75416565 72.36297607 C-74.02189255 71.63991272 -73.28961945 70.91684937 -72.53515625 70.171875 C-71.78664902 69.42286926 -71.03814178 68.67386353 -70.26695251 67.90216064 C-68.68424568 66.32179346 -67.09784674 64.7451165 -65.50805664 63.171875 C-63.06674978 60.75420863 -60.63907994 58.32345198 -58.21289062 55.890625 C-56.67527077 54.35858011 -55.13688519 52.82730326 -53.59765625 51.296875 C-52.86740738 50.56571472 -52.13715851 49.83455444 -51.38478088 49.08123779 C-50.70745407 48.41344299 -50.03012726 47.74564819 -49.33227539 47.05761719 C-48.73572647 46.46567566 -48.13917755 45.87373413 -47.52455139 45.26385498 C-46 44 -46 44 -44 44 C-44.59283621 47.39192363 -45.76743189 49.2107757 -48.0625 51.75 C-48.58126709 52.32395508 -49.10003418 52.89791016 -49.63452148 53.48925781 C-50.08512939 53.98780273 -50.5357373 54.48634766 -51 55 C-46.82011475 52.18963346 -42.80900131 49.05625813 -41.46844482 43.99188232 C-40.68545973 38.33322789 -40.84080989 32.63573441 -40.9375 26.9375 C-40.93442106 25.19595154 -40.9272955 23.45440528 -40.91601562 21.71289062 C-40.89729264 17.47384777 -40.9335295 13.23852809 -41 9 C-38.27708995 9.6123575 -36.20555992 10.36779633 -33.625 11.5625 C-26.79146125 14.11232789 -18.90668808 14.45918681 -12.05078125 11.8984375 C-6.48963991 8.78951842 -3.46448449 5.24921893 0 0 Z " fill="#181611" transform="translate(145,105)"/>
<path d="M0 0 C2.3046875 1.03515625 2.3046875 1.03515625 4 2 C4.66 1.34 5.32 0.68 6 0 C10.05915319 -0.69356035 14.26147038 -0.93346201 17.95703125 1.05078125 C20.09555623 2.81467412 21.75466974 4.50933949 23 7 C23.06950541 8.54023996 23.08452357 10.08334988 23.0625 11.625 C23.05347656 12.44226563 23.04445312 13.25953125 23.03515625 14.1015625 C23.02355469 14.72804688 23.01195312 15.35453125 23 16 C23.99 16.33 24.98 16.66 26 17 C26 17.66 26 18.32 26 19 C24.948125 19.598125 23.89625 20.19625 22.8125 20.8125 C15.8729433 24.91371549 10.5397191 31.23227417 5 37 C-0.48960147 35.37121715 -3.60506185 31.57367344 -7.36328125 27.51953125 C-10.93107529 23.78493126 -14.40854122 21.38203501 -19 19 C-19 18.01 -19 17.02 -19 16 C-18.01 16 -17.02 16 -16 16 C-16.06960937 15.43152344 -16.13921875 14.86304688 -16.2109375 14.27734375 C-16.52543954 9.79194565 -16.32848667 6.64340308 -13.625 2.9375 C-9.71714043 -1.0820127 -5.28542518 -0.98556608 0 0 Z " fill="#191610" transform="translate(169,252)"/>
<path d="M0 0 C39.27 0 78.54 0 119 0 C119.33 18.48 119.66 36.96 120 56 C120.99 57.98 120.99 57.98 122 60 C120.02 60.99 120.02 60.99 118 62 C118 79.82 118 97.64 118 116 C117.67 116 117.34 116 117 116 C117 78.38 117 40.76 117 2 C79.05 2 41.1 2 2 2 C2 22.13 2 42.26 2 63 C0.35 62.01 -1.3 61.02 -3 60 C-2.34 58.68 -1.68 57.36 -1 56 C-0.67 37.52 -0.34 19.04 0 0 Z " fill="#B89856" transform="translate(113,127)"/>
<path d="M0 0 C2.11984182 1.02572992 3.39936836 2.16864862 4.9375 3.9375 C5.453125 3.586875 5.96875 3.23625 6.5 2.875 C9.90219159 1.56646477 12.42275684 2.208025 15.9375 2.9375 C16.4325 3.4325 16.4325 3.4325 16.9375 3.9375 C16.8515625 5.8984375 16.8515625 5.8984375 16.5625 8.3125 C16.42714844 9.49972656 16.42714844 9.49972656 16.2890625 10.7109375 C15.9375 12.9375 15.9375 12.9375 14.9375 15.9375 C14.2775 15.9375 13.6175 15.9375 12.9375 15.9375 C12.9375 18.2475 12.9375 20.5575 12.9375 22.9375 C9.6375 22.6075 6.3375 22.2775 2.9375 21.9375 C2.08484863 18.52689451 1.85549203 16.24658383 1.9375 12.8125 C2.09066487 9.23366131 2.09066487 9.23366131 0.9375 5.9375 C-0.0525 5.9375 -1.0425 5.9375 -2.0625 5.9375 C-3.881778 9.57605601 -2.95496628 13.97310251 -2.8046875 17.96875 C-2.88976562 18.9484375 -2.97484375 19.928125 -3.0625 20.9375 C-6.15138522 22.99675681 -6.77185927 23.1765374 -10.25 23.0625 C-11.508125 23.02125 -12.76625 22.98 -14.0625 22.9375 C-14.18367187 22.33421875 -14.30484375 21.7309375 -14.4296875 21.109375 C-14.59726563 20.31015625 -14.76484375 19.5109375 -14.9375 18.6875 C-15.09992188 17.89859375 -15.26234375 17.1096875 -15.4296875 16.296875 C-15.98140873 13.92285872 -15.98140873 13.92285872 -17.1171875 11.8359375 C-18.46820209 9.12274291 -18.32177505 6.91916302 -18.0625 3.9375 C-16.0625 1.9375 -16.0625 1.9375 -13.1875 1.6875 C-10.20653168 1.92597747 -8.5732442 2.39242665 -6.0625 3.9375 C-5.485 3.256875 -4.9075 2.57625 -4.3125 1.875 C-2.0625 -0.0625 -2.0625 -0.0625 0 0 Z " fill="#171511" transform="translate(173.0625,64.0625)"/>
<path d="M0 0 C2.91359927 1.31895044 5.00061082 2.74545079 7.26806641 4.9934082 C7.88195221 5.59776199 8.49583801 6.20211578 9.12832642 6.82478333 C9.77949432 7.47686264 10.43066223 8.12894196 11.1015625 8.80078125 C11.77923676 9.47417038 12.45691101 10.14755951 13.15512085 10.84135437 C14.5848024 12.26529973 16.01187948 13.69186419 17.43652344 15.12084961 C19.61528712 17.30277303 21.80702577 19.47104284 24 21.63867188 C25.38883143 23.02523021 26.7768789 24.41257434 28.1640625 25.80078125 C28.81927887 26.44678787 29.47449524 27.09279449 30.14956665 27.75837708 C33.32535692 30.96672484 35.75192894 33.53279937 37 38 C36.44570313 38.54269531 35.89140625 39.08539063 35.3203125 39.64453125 C34.59585938 40.35996094 33.87140625 41.07539063 33.125 41.8125 C32.40570313 42.52019531 31.68640625 43.22789062 30.9453125 43.95703125 C28.84641063 46.04399194 28.84641063 46.04399194 27 49 C26.34 49 25.68 49 25 49 C24.731875 49.639375 24.46375 50.27875 24.1875 50.9375 C23 53 23 53 20 54 C19.67 54.99 19.34 55.98 19 57 C17.328125 58.61328125 17.328125 58.61328125 15.25 60.3125 C12.67101757 62.49081909 10.35621633 64.61064766 8.25 67.25 C6.2816571 69.65575243 4.62589571 71.37013369 2 73 C1.34 73 0.68 73 0 73 C1.59085436 68.99244116 4.41784219 66.40879382 7.48046875 63.5 C8.57268211 62.43792814 9.6644664 61.37541488 10.75585938 60.3125 C12.47603091 58.64827902 14.19979557 56.98826731 15.93139648 55.3359375 C17.60467395 53.73497825 19.26208544 52.1189165 20.91796875 50.5 C21.44182663 50.00822266 21.96568451 49.51644531 22.50541687 49.00976562 C24.12619462 47.46977473 24.12619462 47.46977473 26 45 C25.96718203 42.70066027 25.96718203 42.70066027 25 41 C21.05574382 40.58194003 21.05574382 40.58194003 18.83349609 42.74414062 C18.07117676 43.54013672 17.30885742 44.33613281 16.5234375 45.15625 C15.688125 46.01347656 14.8528125 46.87070313 13.9921875 47.75390625 C13.12851562 48.66011719 12.26484375 49.56632812 11.375 50.5 C9.65806541 52.28551038 7.93692947 54.06699356 6.2109375 55.84375 C5.07084229 57.03774414 5.07084229 57.03774414 3.90771484 58.25585938 C2 60 2 60 0 60 C0.54949404 56.11093682 2.25126961 54.4541122 5.0703125 51.8125 C6.29041016 50.64074219 6.29041016 50.64074219 7.53515625 49.4453125 C9.26585346 47.8112002 11.00025476 46.18100228 12.73828125 44.5546875 C13.54910156 43.77351563 14.35992187 42.99234375 15.1953125 42.1875 C15.94828613 41.47980469 16.70125977 40.77210938 17.47705078 40.04296875 C19.20091739 38.15802301 19.20091739 38.15802301 18.98999023 36.00439453 C17.69918635 33.39095437 16.06617242 31.76371315 13.96484375 29.7421875 C12.75151367 28.55689453 12.75151367 28.55689453 11.51367188 27.34765625 C10.66353516 26.53167969 9.81339844 25.71570313 8.9375 24.875 C7.25473436 23.25192491 5.57610887 21.62454263 3.90234375 19.9921875 C3.15460693 19.27401855 2.40687012 18.55584961 1.63647461 17.81591797 C0 16 0 16 0 14 C3.37505238 15.44732229 5.41873754 17.26058281 7.8984375 19.94921875 C8.62546875 20.71427734 9.3525 21.47933594 10.1015625 22.26757812 C11.61940188 23.88321644 13.12724227 25.50830602 14.625 27.14257812 C16.67358366 29.27983722 18.60887835 31.25308551 21 33 C24.43807803 33.24774176 24.43807803 33.24774176 27 32 C24.74041001 27.79261953 21.86968586 24.64766124 18.45703125 21.3671875 C17.37293847 20.30349589 16.28895733 19.23969049 15.20507812 18.17578125 C13.50216681 16.51653432 11.79685231 14.85984221 10.08911133 13.20556641 C8.4345646 11.59913212 6.78919675 9.98372734 5.14453125 8.3671875 C4.62897171 7.87338593 4.11341217 7.37958435 3.58222961 6.87081909 C2.3302716 5.63662932 1.15742088 4.32325364 0 3 C0 2.01 0 1.02 0 0 Z " fill="#C09E56" transform="translate(244,149)"/>
<path d="M0 0 C-0.4155843 4.46402906 -3.52613674 6.90601071 -6.56640625 9.859375 C-7.11989243 10.40861633 -7.6733786 10.95785767 -8.24363708 11.52374268 C-10.00966559 13.27300464 -11.78584692 15.01153644 -13.5625 16.75 C-14.76305441 17.935505 -15.9629326 19.12169524 -17.16210938 20.30859375 C-20.10029095 23.21373293 -23.04762074 26.10929337 -26 29 C-25.34 30.32 -24.68 31.64 -24 33 C-20.12232889 32.44581299 -18.41531367 30.74349593 -15.7421875 27.96484375 C-14.55689453 26.75151367 -14.55689453 26.75151367 -13.34765625 25.51367188 C-12.12369141 24.2384668 -12.12369141 24.2384668 -10.875 22.9375 C-9.25192491 21.25473436 -7.62454263 19.57610887 -5.9921875 17.90234375 C-4.91493408 16.78073853 -4.91493408 16.78073853 -3.81591797 15.63647461 C-2 14 -2 14 0 14 C0 17 0 17 -1.35546875 18.4296875 C-1.96003906 18.90664062 -2.56460938 19.38359375 -3.1875 19.875 C-6.31980068 22.42980236 -9.17357139 25.10291067 -12 28 C-12.62648438 28.56976563 -13.25296875 29.13953125 -13.8984375 29.7265625 C-14.55070312 30.33242187 -15.20296875 30.93828125 -15.875 31.5625 C-16.49117187 32.12066406 -17.10734375 32.67882812 -17.7421875 33.25390625 C-19.20923142 34.89090874 -19.20923142 34.89090874 -18.84448242 36.8293457 C-17.7063006 39.75492379 -16.00282664 41.30099382 -13.74609375 43.4765625 C-12.46508789 44.72953125 -12.46508789 44.72953125 -11.15820312 46.0078125 C-9.81145508 47.30332031 -9.81145508 47.30332031 -8.4375 48.625 C-6.66098417 50.34183302 -4.88860817 52.06296376 -3.12109375 53.7890625 C-2.3314624 54.54912598 -1.54183105 55.30918945 -0.72827148 56.09228516 C1 58 1 58 1 60 C-2.88745127 59.45142713 -4.52488032 57.75907776 -7.15234375 54.9296875 C-7.92900391 54.11628906 -8.70566406 53.30289063 -9.50585938 52.46484375 C-11.12903114 50.73606804 -12.74622251 49.00165802 -14.35742188 47.26171875 C-15.5243457 46.04548828 -15.5243457 46.04548828 -16.71484375 44.8046875 C-17.41730225 44.05171387 -18.11976074 43.29874023 -18.84350586 42.52294922 C-20.94045189 40.69120082 -20.94045189 40.69120082 -23.76782227 41.26220703 C-24.50444092 41.50567871 -25.24105957 41.74915039 -26 42 C-25.58600064 46.45896585 -22.48535465 48.85988267 -19.43359375 51.7890625 C-18.88010757 52.33356049 -18.3266214 52.87805847 -17.75636292 53.4390564 C-15.99040127 55.17502 -14.2148741 56.90072846 -12.4375 58.625 C-10.65747331 60.357281 -8.87974652 62.09169238 -7.10792542 63.83236694 C-6.00562678 64.91482543 -4.89842013 65.99231212 -3.78599548 67.06436157 C-2.48602531 68.3386243 -1.2375389 69.66502231 0 71 C0 71.66 0 72.32 0 73 C-3.01647998 71.64451035 -5.14376688 70.11944709 -7.49926758 67.80712891 C-8.16287796 67.15950592 -8.82648834 66.51188293 -9.51020813 65.84463501 C-10.21453476 65.14567108 -10.91886139 64.44670715 -11.64453125 63.7265625 C-12.37371262 63.00640961 -13.10289398 62.28625671 -13.85417175 61.54428101 C-15.39077185 60.02217102 -16.92459036 58.49724854 -18.45581055 56.96972656 C-20.80909068 54.62839201 -23.18037388 52.30635386 -25.55273438 49.984375 C-27.04281194 48.50375586 -28.53178323 47.02202238 -30.01953125 45.5390625 C-30.73397903 44.84414703 -31.44842682 44.14923157 -32.18452454 43.43325806 C-32.83237411 42.77933075 -33.48022369 42.12540344 -34.14770508 41.45166016 C-34.72410233 40.88033356 -35.30049957 40.30900696 -35.8943634 39.72036743 C-37 38 -37 38 -36.87844849 36.00772095 C-35.83975793 33.63376185 -34.63052095 32.25626948 -32.79711914 30.42480469 C-32.12294449 29.74440125 -31.44876984 29.0639978 -30.75416565 28.36297607 C-30.02189255 27.63991272 -29.28961945 26.91684937 -28.53515625 26.171875 C-27.78664902 25.42286926 -27.03814178 24.67386353 -26.26695251 23.90216064 C-24.68424568 22.32179346 -23.09784674 20.7451165 -21.50805664 19.171875 C-19.06674978 16.75420863 -16.63907994 14.32345198 -14.21289062 11.890625 C-12.67527077 10.35858011 -11.13688519 8.82730326 -9.59765625 7.296875 C-8.86740738 6.56571472 -8.13715851 5.83455444 -7.38478088 5.08123779 C-6.70745407 4.41344299 -6.03012726 3.74564819 -5.33227539 3.05761719 C-4.73572647 2.46567566 -4.13917755 1.87373413 -3.52455139 1.26385498 C-2 0 -2 0 0 0 Z " fill="#C6A357" transform="translate(101,149)"/>
<path d="M0 0 C13.56191038 -0.41096698 13.56191038 -0.41096698 18 3 C20.73004414 5.88570456 21.45074685 7.92243474 21.5 11.875 C21.39804712 15.50774201 20.97398424 17.70957556 18.6875 20.5625 C13.27311187 25.47322412 6.96516983 24.06896208 0 24 C0 16.08 0 8.16 0 0 Z " fill="#141414" transform="translate(161,155)"/>
<path d="M0 0 C2.3046875 1.03515625 2.3046875 1.03515625 4 2 C4.66 1.34 5.32 0.68 6 0 C10.05915319 -0.69356035 14.26147038 -0.93346201 17.95703125 1.05078125 C20.09555623 2.81467412 21.75466974 4.50933949 23 7 C23.06950541 8.54023996 23.08452357 10.08334988 23.0625 11.625 C23.05347656 12.44226563 23.04445312 13.25953125 23.03515625 14.1015625 C23.02355469 14.72804688 23.01195312 15.35453125 23 16 C23.99 16.33 24.98 16.66 26 17 C26 17.66 26 18.32 26 19 C24.948125 19.598125 23.89625 20.19625 22.8125 20.8125 C15.8729433 24.91371549 10.5397191 31.23227417 5 37 C-0.48960147 35.37121715 -3.60506185 31.57367344 -7.36328125 27.51953125 C-10.93107529 23.78493126 -14.40854122 21.38203501 -19 19 C-19 18.01 -19 17.02 -19 16 C-18.01 16 -17.02 16 -16 16 C-16.06960937 15.43152344 -16.13921875 14.86304688 -16.2109375 14.27734375 C-16.52543954 9.79194565 -16.32848667 6.64340308 -13.625 2.9375 C-9.71714043 -1.0820127 -5.28542518 -0.98556608 0 0 Z M-12 5 C-13.26104967 8.78314902 -13.71209445 12.08700573 -13 16 C-9.41617116 23.06850036 -2.6216057 28.57837237 3 34 C14.21167633 25.49167001 14.21167633 25.49167001 20.34765625 13.609375 C20.59479824 9.27488466 20.6754459 6.85965841 17.9375 3.375 C14.3711744 1.7056561 11.89649216 1.6324064 8 2 C7.01 2.495 7.01 2.495 6 3 C6.58174845 8.3086849 6.58174845 8.3086849 9 13 C9.99 13 10.98 13 12 13 C12 11.35 12 9.7 12 8 C12.66 8.33 13.32 8.66 14 9 C14.042721 10.66611905 14.04063832 12.33382885 14 14 C13 15 13 15 10.75 15.375 C6.89386948 14.84916402 5.49874064 12.85570359 3 10 C2.1646875 11.2375 2.1646875 11.2375 1.3125 12.5 C-1 15 -1 15 -3.6875 15.375 C-6 15 -6 15 -7 14 C-7.04063832 12.33382885 -7.042721 10.66611905 -7 9 C-6.34 8.67 -5.68 8.34 -5 8 C-5 9.65 -5 11.3 -5 13 C-3.05000871 12.80528889 -3.05000871 12.80528889 -1 12 C1.11103658 9.04454879 1.19785783 6.56144099 1 3 C-3.61708402 0.69145799 -8.43989339 1.30296622 -12 5 Z " fill="#A7873F" transform="translate(169,252)"/>
<path d="M0 0 C3.4375 2 3.4375 2 6 4 C6.66 3.67 7.32 3.34 8 3 C8.48220263 4.87422152 8.96061833 6.74941754 9.4375 8.625 C9.70433594 9.66914062 9.97117188 10.71328125 10.24609375 11.7890625 C11 15 11 15 11.47265625 18.2734375 C11.76223202 21.13554411 11.76223202 21.13554411 14 23 C7.565 24.485 7.565 24.485 1 26 C0.278125 24.783125 -0.44375 23.56625 -1.1875 22.3125 C-3.42363265 18.72325299 -5.87327291 15.87320868 -9 13 C-11 11 -11 11 -11.375 7.625 C-11 4 -11 4 -9.4375 1.5625 C-6.02780394 -0.6232026 -3.987831 -0.55004566 0 0 Z " fill="#B2955D" transform="translate(147,67)"/>
<path d="M0 0 C2.31 0 4.62 0 7 0 C7 17.49 7 34.98 7 53 C4.69 53 2.38 53 0 53 C0 35.51 0 18.02 0 0 Z " fill="#FBFBFB" transform="translate(153,154)"/>
<path d="M0 0 C0.99 0 1.98 0 3 0 C1.59012409 5.169545 -1.86322045 8.75341352 -6 12 C-8.2265625 12.703125 -8.2265625 12.703125 -10 13 C-10 13.66 -10 14.32 -10 15 C-19.36773751 18.48566977 -27.89871501 17.90055071 -37 14 C-37 34.13 -37 54.26 -37 75 C-37.99 75 -38.98 75 -40 75 C-40 53.22 -40 31.44 -40 9 C-38.02 9.99 -38.02 9.99 -36 11 C-28.56565656 13.90909091 -19.59605727 14.70832288 -12.046875 11.90234375 C-6.49227955 8.78412026 -3.46463612 5.24944866 0 0 Z " fill="#937A48" transform="translate(145,105)"/>
<path d="M0 0 C0.66 0 1.32 0 2 0 C3.40234375 1.6796875 3.40234375 1.6796875 4.9375 3.875 C7.42514665 7.42514535 9.28759241 9.60176568 13.6875 10.625 C14.450625 10.74875 15.21375 10.8725 16 11 C16 11.66 16 12.32 16 13 C27.57731991 13.61976594 27.57731991 13.61976594 38.36328125 9.875 C40 9 40 9 42 9 C42 30.78 42 52.56 42 75 C41.01 75 40.02 75 39 75 C39 54.87 39 34.74 39 14 C36.36 14.99 33.72 15.98 31 17 C23.15250118 18.08904065 15.26937818 17.09548611 8.76953125 12.3828125 C5.42947304 9.54771755 2.39490463 6.69520561 0 3 C0 2.01 0 1.02 0 0 Z " fill="#A3884F" transform="translate(198,105)"/>
<path d="M0 0 C0.99 0 1.98 0 3 0 C3 20.13 3 40.26 3 61 C5.31 60.01 7.62 59.02 10 58 C20.09841535 56.56373144 28.69323063 57.93899316 37 64 C40.35560327 67.35560327 43 70.13574777 43 75 C39.581264 73.86042133 38.97467693 72.95570276 36.8125 70.1875 C31.6761863 64.12817009 25.83829897 61.56203664 18.01171875 60.80859375 C12.52926068 60.51505973 8.72639933 61.64690828 3.84765625 64.125 C2 65 2 65 0 65 C0 43.55 0 22.1 0 0 Z " fill="#A18443" transform="translate(105,192)"/>
<path d="M0 0 C0.66 0 1.32 0 2 0 C2 21.78 2 43.56 2 66 C-2 65 -2 65 -5 63.4375 C-10.97422986 60.86615053 -17.69957364 60.88919168 -23.8203125 62.94921875 C-29.6572848 65.71089072 -33.8611325 69.06895935 -37.6875 74.3125 C-38.120625 74.869375 -38.55375 75.42625 -39 76 C-39.66 76 -40.32 76 -41 76 C-39.947013 70.46879243 -36.38660489 66.79109887 -31.96484375 63.47265625 C-26.23406153 59.7771051 -22.05605702 58.83929868 -15.1875 58.75 C-14.00542969 58.72421875 -12.82335937 58.6984375 -11.60546875 58.671875 C-7.41300196 59.05342127 -4.81339749 60.27710514 -1 62 C-1.00222061 61.23800797 -1.00444122 60.47601593 -1.00672913 59.69093323 C-1.02673157 52.52448288 -1.04197388 45.35804599 -1.05181217 38.19157505 C-1.05704008 34.50685502 -1.06413605 30.82215797 -1.07543945 27.13745117 C-1.08627162 23.58429169 -1.09227753 20.03115437 -1.09487724 16.47797966 C-1.0967309 15.11954334 -1.10035038 13.76110829 -1.10573006 12.40268135 C-1.11294475 10.50617777 -1.11340809 8.60965207 -1.11352539 6.71313477 C-1.115746 5.63169693 -1.11796661 4.55025909 -1.12025452 3.43605042 C-1 1 -1 1 0 0 Z " fill="#A58744" transform="translate(238,191)"/>
<path d="M0 0 C3.93774177 -0.36630156 5.56539771 -0.30233203 8.875 2 C9.57625 2.66 10.2775 3.32 11 4 C11.37125 3.34 11.7425 2.68 12.125 2 C14 0 14 0 17.0625 -0.3125 C20 0 20 0 22 1 C22 2.65 22 4.3 22 6 C21.01 6.33 20.02 6.66 19 7 C19 5.35 19 3.7 19 2 C15.87802522 3.3089572 15.87802522 3.3089572 14 6 C13.960008 7.99960012 13.95653201 10.00047242 14 12 C17.05052416 12.2877853 19.95847293 12.42678621 23 12 C26.03381293 8.77657376 26.49810434 5.31630266 27 1 C27.99 1 28.98 1 30 1 C30.48801743 8.19825708 30.48801743 8.19825708 28.25 11.875 C24.9164656 15.02333804 23.25627347 15.93020703 18.625 16.1875 C15 16 15 16 11.6875 15.375 C10.800625 15.25125 9.91375 15.1275 9 15 C8.34 15.66 7.68 16.32 7 17 C2.20911569 17.47908843 -0.06814828 17.48318237 -4.375 15.25 C-8.16666667 12 -8.16666667 12 -9 9 C-9.14489347 6.30912124 -9.08998823 3.69964689 -9 1 C-8.01 1 -7.02 1 -6 1 C-5.87882813 1.62648438 -5.75765625 2.25296875 -5.6328125 2.8984375 C-5.46523437 3.71570313 -5.29765625 4.53296875 -5.125 5.375 C-4.96257812 6.18710938 -4.80015625 6.99921875 -4.6328125 7.8359375 C-4.13341068 10.18673923 -4.13341068 10.18673923 -2 12 C0.21072977 12.24253813 0.21072977 12.24253813 2.625 12.125 C3.44226563 12.10695313 4.25953125 12.08890625 5.1015625 12.0703125 C5.72804687 12.04710938 6.35453125 12.02390625 7 12 C7.23428313 7.2102679 7.23428313 7.2102679 5 3 C4.01 2.67 3.02 2.34 2 2 C2 3.65 2 5.3 2 7 C1.34 7 0.68 7 0 7 C0 4.69 0 2.38 0 0 Z " fill="#9B814E" transform="translate(162,104)"/>
<path d="M0 0 C2.95265112 1.32994383 5.02350216 2.77779316 7.29980469 5.07275391 C8.23031647 6.00349228 8.23031647 6.00349228 9.17962646 6.95303345 C10.16578949 7.95468033 10.16578949 7.95468033 11.171875 8.9765625 C11.8542926 9.66181 12.53671021 10.3470575 13.23980713 11.05307007 C15.41461598 13.23905845 17.58236072 15.43190429 19.75 17.625 C21.2247999 19.10983255 22.70005506 20.59421306 24.17578125 22.078125 C27.78915448 25.7135291 31.39620853 29.35509824 35 33 C34.01 33.495 34.01 33.495 33 34 C33.226875 34.598125 33.45375 35.19625 33.6875 35.8125 C34 38 34 38 32.8125 39.8125 C31 41 31 41 28.9375 40.8125 C27 40 27 40 25 38 C25 37.01 25 36.02 25 35 C23.515 34.505 23.515 34.505 22 34 C23.65 33.34 25.3 32.68 27 32 C24.74041001 27.79261953 21.86968586 24.64766124 18.45703125 21.3671875 C17.37293847 20.30349589 16.28895733 19.23969049 15.20507812 18.17578125 C13.50216681 16.51653432 11.79685231 14.85984221 10.08911133 13.20556641 C8.4345646 11.59913212 6.78919675 9.98372734 5.14453125 8.3671875 C4.62897171 7.87338593 4.11341217 7.37958435 3.58222961 6.87081909 C2.3302716 5.63662932 1.15742088 4.32325364 0 3 C0 2.01 0 1.02 0 0 Z " fill="#A98B4E" transform="translate(244,149)"/>
<path d="M0 0 C6.6 0 13.2 0 20 0 C20 5.28 20 10.56 20 16 C16.72170724 14.36085362 14.49297209 12.9514467 11.75 10.625 C11.04359375 10.03976563 10.3371875 9.45453125 9.609375 8.8515625 C8 7 8 7 8 3 C5.69 3 3.38 3 1 3 C0.67 2.01 0.34 1.02 0 0 Z " fill="#967C49" transform="translate(204,134)"/>
<path d="M0 0 C6.6 0 13.2 0 20 0 C20 0.66 20 1.32 20 2 C17.29120665 3.35439668 14.99066732 3.06501451 12 3 C11.92652344 3.73605469 11.85304687 4.47210938 11.77734375 5.23046875 C10.79298186 8.73756713 9.31658668 9.97262796 6.5625 12.3125 C5.75941406 13.00988281 4.95632812 13.70726562 4.12890625 14.42578125 C2 16 2 16 0 16 C0 10.72 0 5.44 0 0 Z " fill="#A0854E" transform="translate(121,134)"/>
<path d="M0 0 C0 4.95 0 9.9 0 15 C-6.6 15 -13.2 15 -20 15 C-19.67 14.34 -19.34 13.68 -19 13 C-16.69 13 -14.38 13 -12 13 C-12.10054687 12.26394531 -12.20109375 11.52789062 -12.3046875 10.76953125 C-12 8 -12 8 -9.8828125 5.76171875 C-8.51769531 4.73498047 -8.51769531 4.73498047 -7.125 3.6875 C-6.22007812 2.99011719 -5.31515625 2.29273438 -4.3828125 1.57421875 C-2 0 -2 0 0 0 Z " fill="#C09C4E" transform="translate(224,222)"/>
<path d="M0 0 C2.65694438 0.16605902 3.76383679 0.78913999 5.75 2.5625 C6.1625 3.036875 6.575 3.51125 7 4 C7.515625 3.649375 8.03125 3.29875 8.5625 2.9375 C12.14512318 1.55956801 14.32529175 1.96850295 18 3 C19.9993885 4.84236846 21.38309196 6.78252612 23 9 C23.66 9.33 24.32 9.66 25 10 C25 10.66 25 11.32 25 12 C23.68 12 22.36 12 21 12 C21 13.65 21 15.3 21 17 C20.01 16.67 19.02 16.34 18 16 C18 13.03 18 10.06 18 7 C13.22237362 5.98312954 13.22237362 5.98312954 8.5625 6.9375 C8.046875 7.288125 7.53125 7.63875 7 8 C6.4225 7.319375 5.845 6.63875 5.25 5.9375 C3.23404424 3.76060291 3.23404424 3.76060291 0.9375 4.0625 C-1.18234182 5.08822992 -2.46186836 6.23114862 -4 8 C-4.53625 7.67 -5.0725 7.34 -5.625 7 C-8.5391061 5.77300796 -10.86867708 5.85766714 -14 6 C-14.99 7.98 -15.98 9.96 -17 12 C-17.66 10.68 -18.32 9.36 -19 8 C-17.5 5.5 -17.5 5.5 -15 3 C-12.28542706 2.5271748 -9.73156734 2.75992084 -7 3 C-5.68 3 -4.36 3 -3 3 C-2.505 2.484375 -2.01 1.96875 -1.5 1.4375 C-1.005 0.963125 -0.51 0.48875 0 0 Z " fill="#C4A468" transform="translate(171,61)"/>
<path d="M0 0 C2.98489562 1.49244781 5.54367277 2.91305922 8.25 4.8125 C8.95640625 5.29332031 9.6628125 5.77414063 10.390625 6.26953125 C12 8 12 8 12.234375 10.69921875 C12.15703125 11.45847656 12.0796875 12.21773437 12 13 C14.31 13 16.62 13 19 13 C19.33 13.66 19.66 14.32 20 15 C13.4 15 6.8 15 0 15 C0 10.05 0 5.1 0 0 Z " fill="#BD9A4D" transform="translate(121,222)"/>
<path d="M0 0 C1.04607422 -0.01160156 2.09214844 -0.02320312 3.16992188 -0.03515625 C10.0787341 -0.00942511 17.06053455 0.48672055 23.4375 3.375 C23.9325 4.86 23.9325 4.86 24.4375 6.375 C20.96808454 5.91677532 17.76354951 5.48368317 14.4375 4.375 C10.32519228 4.17065533 6.21271955 4.18919811 2.09570312 4.18969727 C0.07660706 4.18751525 -1.94193836 4.16935877 -3.9609375 4.15039062 C-5.2396875 4.14845703 -6.5184375 4.14652344 -7.8359375 4.14453125 C-9.00560059 4.14042236 -10.17526367 4.13631348 -11.38037109 4.13208008 C-14.54620662 4.37375618 -16.68333697 5.10683434 -19.5625 6.375 C-22.375 6.5 -22.375 6.5 -24.5625 6.375 C-24.5625 5.385 -24.5625 4.395 -24.5625 3.375 C-16.25276016 0.9275154 -8.64903577 -0.09627869 0 0 Z " fill="#A28753" transform="translate(172.5625,93.625)"/>
<path d="M0 0 C0.33 0 0.66 0 1 0 C1 21.78 1 43.56 1 66 C0.67 66 0.34 66 0 66 C-0.33 61.38 -0.66 56.76 -1 52 C-7.93 58.93 -14.86 65.86 -22 73 C-22.33 72.01 -22.66 71.02 -23 70 C-18.33333333 65.33333333 -13.66666667 60.66666667 -9 56 C-8.278125 55.236875 -7.55625 54.47375 -6.8125 53.6875 C-5 52 -5 52 -3 52 C-3 51.01 -3 50.02 -3 49 C-2.34 49 -1.68 49 -1 49 C-0.67 32.83 -0.34 16.66 0 0 Z " fill="#2C2619" transform="translate(104,114)"/>
<path d="M0 0 C3.01966776 0.24157342 4.54918489 0.77810565 7.125 2.25 C7.785 2.25 8.445 2.25 9.125 2.25 C9.3125 5.625 9.3125 5.625 9.125 9.25 C5.35430016 11.7637999 2.55646689 11.99781004 -1.875 11.25 C-4.40182929 9.11798779 -4.79934453 7.88550593 -5.1875 4.625 C-4.70552758 0.96200962 -3.61421553 0.31427961 0 0 Z " fill="#1A1713" transform="translate(143.875,69.75)"/>
<path d="M0 0 C3.0625 0.1875 3.0625 0.1875 5.0625 2.1875 C5.3892107 5.25858055 5.54388276 7.33800101 4 10.0625 C0.97994134 11.81608245 -1.51867069 11.48739731 -4.9375 11.1875 C-7.375 10.1875 -7.375 10.1875 -8.9375 9.1875 C-8.9375 7.2075 -8.9375 5.2275 -8.9375 3.1875 C-8.133125 2.878125 -7.32875 2.56875 -6.5 2.25 C-1.26886095 0.08099112 -1.26886095 0.08099112 0 0 Z " fill="#181612" transform="translate(200.9375,69.8125)"/>
<path d="M0 0 C-0.42377232 4.43605654 -3.47108183 6.85153294 -6.49609375 9.7890625 C-7.04483658 10.33356049 -7.59357941 10.87805847 -8.15895081 11.4390564 C-9.91154145 13.17488247 -11.67426873 14.8999901 -13.4375 16.625 C-14.62112871 17.79357641 -15.80407957 18.96283982 -16.98632812 20.1328125 C-19.15134863 22.27333031 -21.32002573 24.40997485 -23.49389648 26.54150391 C-25.00227583 28.02122919 -26.505879 29.505879 -28 31 C-28.99 30.34 -29.98 29.68 -31 29 C-26.91292695 24.86361198 -22.81942122 20.73374208 -18.71972656 16.60986328 C-17.32501851 15.20507692 -15.93210796 13.79850363 -14.54101562 12.39013672 C-12.54502969 10.36998287 -10.5427381 8.35627344 -8.5390625 6.34375 C-7.91504547 5.7094104 -7.29102844 5.0750708 -6.64810181 4.42150879 C-2.22774341 0 -2.22774341 0 0 0 Z " fill="#A78A4E" transform="translate(101,149)"/>
<path d="M0 0 C3.375 0.75 3.375 0.75 4.375 1.75 C4.5625 4.1875 4.5625 4.1875 4.375 6.75 C3.715 7.41 3.055 8.07 2.375 8.75 C1.055 8.75 -0.265 8.75 -1.625 8.75 C-1.625 7.76 -1.625 6.77 -1.625 5.75 C-0.635 5.75 0.355 5.75 1.375 5.75 C1.375 4.76 1.375 3.77 1.375 2.75 C0.055 3.08 -1.265 3.41 -2.625 3.75 C-2.67937607 5.33294782 -2.71796271 6.91644256 -2.75 8.5 C-2.77320312 9.38171875 -2.79640625 10.2634375 -2.8203125 11.171875 C-2.61409994 13.89388085 -1.89255925 15.37457399 -0.625 17.75 C-0.625 18.74 -0.625 19.73 -0.625 20.75 C-1.615 20.75 -2.605 20.75 -3.625 20.75 C-6.25215398 14.83890354 -7.80347081 9.25469675 -6.625 2.75 C-4.4120827 -0.33608647 -3.99108065 -0.27524694 0 0 Z " fill="#A18443" transform="translate(93.625,225.25)"/>
<path d="M0 0 C3.93774177 -0.36630156 5.56539771 -0.30233203 8.875 2 C9.926875 2.99 9.926875 2.99 11 4 C11.37125 3.34 11.7425 2.68 12.125 2 C14 0 14 0 17.0625 -0.3125 C20 0 20 0 22 1 C22 2.65 22 4.3 22 6 C21.01 6.33 20.02 6.66 19 7 C19 5.35 19 3.7 19 2 C15.15521125 3.45836815 13.8177085 5.36458299 12 9 C11.30420546 11.19130534 11.30420546 11.19130534 11 13 C10.34 13 9.68 13 9 13 C8.82984375 12.37351562 8.6596875 11.74703125 8.484375 11.1015625 C8.24203125 10.28429687 7.9996875 9.46703125 7.75 8.625 C7.51796875 7.81289062 7.2859375 7.00078125 7.046875 6.1640625 C5.7785108 3.54214546 4.67576692 3.00617682 2 2 C2 3.65 2 5.3 2 7 C1.34 7 0.68 7 0 7 C0 4.69 0 2.38 0 0 Z " fill="#B5975B" transform="translate(162,104)"/>
<path d="M0 0 C6.46153846 0.46153846 6.46153846 0.46153846 9 3 C10.12312519 10.02606221 8.55788869 14.99606283 5 21 C4.06576355 17.98968256 3.95550089 17.13349732 5 14 C5.06802967 12.27204648 5.08495645 10.54164635 5.0625 8.8125 C5.05347656 7.91144531 5.04445312 7.01039063 5.03515625 6.08203125 C5.02355469 5.39496094 5.01195312 4.70789063 5 4 C3.68 3.67 2.36 3.34 1 3 C1 3.99 1 4.98 1 6 C1.99 6 2.98 6 4 6 C4 6.99 4 7.98 4 9 C-0.875 8.125 -0.875 8.125 -2 7 C-2.1875 4.5625 -2.1875 4.5625 -2 2 C-1.34 1.34 -0.68 0.68 0 0 Z " fill="#A28443" transform="translate(249,225)"/>
<path d="M0 0 C1.9375 0.375 1.9375 0.375 4 1 C5.26237731 3.52475462 5.09856404 5.31200466 5.0625 8.125 C5.05347656 9.03507812 5.04445312 9.94515625 5.03515625 10.8828125 C5.02355469 11.58148438 5.01195312 12.28015625 5 13 C4.34 13 3.68 13 3 13 C3 14.32 3 15.64 3 17 C2.01 17 1.02 17 0 17 C-2.32005605 12.5048914 -2.6320746 7.96364462 -2 3 C-1.34 2.01 -0.68 1.02 0 0 Z " fill="#7A6742" transform="translate(171,69)"/>
<path d="M0 0 C0.66 0.99 1.32 1.98 2 3 C1.01 3.33 0.02 3.66 -1 4 C-1.33 4.66 -1.66 5.32 -2 6 C-2.33 6.66 -2.66 7.32 -3 8 C-3.99 8.33 -4.98 8.66 -6 9 C-6.33 9.99 -6.66 10.98 -7 12 C-8.671875 13.61328125 -8.671875 13.61328125 -10.75 15.3125 C-13.32898243 17.49081909 -15.64378367 19.61064766 -17.75 22.25 C-19.7183429 24.65575243 -21.37410429 26.37013369 -24 28 C-24.66 28 -25.32 28 -26 28 C-24.39626852 23.99482604 -21.57886014 21.3228902 -18.5546875 18.359375 C-17.75987473 17.56880707 -17.75987473 17.56880707 -16.94900513 16.76226807 C-15.26232175 15.08674325 -13.56880436 13.41832278 -11.875 11.75 C-10.72740612 10.61244149 -9.58026539 9.47442564 -8.43359375 8.3359375 C-5.62761863 5.55196535 -2.81549536 2.7743424 0 0 Z " fill="#B4934D" transform="translate(270,194)"/>
<path d="M0 0 C2 2 2 2 2.125 5.625 C2.08375 6.73875 2.0425 7.8525 2 9 C3.62752231 8.74476126 5.25203196 8.47025506 6.875 8.1875 C7.77992188 8.03667969 8.68484375 7.88585937 9.6171875 7.73046875 C12.34412478 7.16948699 12.34412478 7.16948699 14 4 C14 5.32 14 6.64 14 8 C14.99 8 15.98 8 17 8 C17.33 6.68 17.66 5.36 18 4 C18.33 4.99 18.66 5.98 19 7 C22.3 7.66 25.6 8.32 29 9 C29 6.69 29 4.38 29 2 C29.33 2 29.66 2 30 2 C30 4.64 30 7.28 30 10 C29.01 9.96519531 28.02 9.93039063 27 9.89453125 C19.6373258 9.71549966 13.84554069 10.06619685 7 13 C4.59797912 13.23558282 2.41897994 13.15118625 0 13 C0.66 12.34 1.32 11.68 2 11 C1.67 9.9275 1.34 8.855 1 7.75 C0 4 0 4 0 0 Z " fill="#887248" transform="translate(157,78)"/>
<path d="M0 0 C0.71115967 0.71260986 1.42231934 1.42521973 2.1550293 2.15942383 C4.93079144 4.93530788 7.72479515 7.69243437 10.51953125 10.44921875 C12.08173887 11.99670729 13.64300669 13.54513704 15.20385742 15.09399414 C16.2834909 16.16346868 17.36489711 17.23115639 18.44799805 18.29711914 C20.01818611 19.84317594 21.58193689 21.39549228 23.14453125 22.94921875 C24.54215698 24.33113403 24.54215698 24.33113403 25.96801758 25.7409668 C28 28 28 28 28 30 C23.80374091 28.36221955 21.01323215 25.26676818 17.921875 22.1171875 C17.35043762 21.54292023 16.77900024 20.96865295 16.19024658 20.37698364 C14.37207055 18.5476419 12.56098508 16.71145807 10.75 14.875 C9.51608671 13.63105226 8.28171678 12.3875573 7.046875 11.14453125 C4.02593257 8.10157633 1.01132908 5.05246746 -2 2 C-1.34 1.34 -0.68 0.68 0 0 Z " fill="#B1914C" transform="translate(73,192)"/>
<path d="M0 0 C0.53616943 0.50305664 1.07233887 1.00611328 1.62475586 1.52441406 C2.22819824 2.08193359 2.83164063 2.63945312 3.45336914 3.21386719 C4.38705322 4.11782227 4.38705322 4.11782227 5.33959961 5.04003906 C5.95818848 5.62720703 6.57677734 6.214375 7.21411133 6.81933594 C9.08999963 8.62230293 10.93636094 10.45124827 12.77709961 12.29003906 C13.41325195 12.91394531 14.0494043 13.53785156 14.70483398 14.18066406 C15.60492188 15.07785156 15.60492188 15.07785156 16.52319336 15.99316406 C17.06516357 16.53102539 17.60713379 17.06888672 18.16552734 17.62304688 C19.33959961 19.04003906 19.33959961 19.04003906 19.33959961 21.04003906 C15.49349763 20.48132392 13.78313134 18.8238086 11.11694336 16.07519531 C9.93841797 14.87540039 9.93841797 14.87540039 8.73608398 13.65136719 C7.92461914 12.81025391 7.1131543 11.96914062 6.27709961 11.10253906 C4.66339623 9.44546342 3.04760015 7.79042242 1.42944336 6.13769531 C0.71651123 5.40043213 0.0035791 4.66316895 -0.73095703 3.90356445 C-2.72065072 1.87056003 -2.72065072 1.87056003 -5.66040039 0.04003906 C-2.14857583 -1.2421997 -2.14857583 -1.2421997 0 0 Z " fill="#9E8245" transform="translate(82.660400390625,187.9599609375)"/>
<path d="M0 0 C0.66 1.32 1.32 2.64 2 4 C-0.80530847 6.8546576 -3.61707696 9.70277231 -6.43505859 12.54492188 C-7.39324956 13.51318538 -8.34963982 14.48323426 -9.30419922 15.45507812 C-10.6746382 16.8497097 -12.05206367 18.23746521 -13.4296875 19.625 C-14.25710449 20.46289062 -15.08452148 21.30078125 -15.93701172 22.1640625 C-18 24 -18 24 -20 24 C-19.44303666 20.13715464 -17.75860899 18.41878055 -15 15.7421875 C-14.195625 14.95199219 -13.39125 14.16179687 -12.5625 13.34765625 C-11.2940625 12.12369141 -11.2940625 12.12369141 -10 10.875 C-8.33126842 9.24951299 -6.66449848 7.62200893 -5 5.9921875 C-4.2575 5.27401855 -3.515 4.55584961 -2.75 3.81591797 C-0.9293649 2.10759631 -0.9293649 2.10759631 0 0 Z " fill="#A28547" transform="translate(264,185)"/>
<path d="M0 0 C3.05097265 -0.28782761 5.95738549 -0.42004236 9 0 C11.125 2.0625 11.125 2.0625 12 5 C11.93279659 8.83059419 11.47239551 11.21267415 9.5 14.5 C6.10494856 16.53703086 3.75842519 16.06905215 -0.07421875 15.5546875 C-0.70972656 15.37164062 -1.34523437 15.18859375 -2 15 C-2.33 14.34 -2.66 13.68 -3 13 C-2.06027344 13.03480469 -2.06027344 13.03480469 -1.1015625 13.0703125 C0.12433594 13.09738281 0.12433594 13.09738281 1.375 13.125 C2.59316406 13.15980469 2.59316406 13.15980469 3.8359375 13.1953125 C6.21342243 13.21370051 6.21342243 13.21370051 8 11 C8.25005386 7.95817107 8.25005386 7.95817107 8 5 C6.88898816 3.66351983 6.88898816 3.66351983 4.0625 3.875 C1.08454272 3.78674336 1.08454272 3.78674336 -1 5 C-1.66 4.34 -2.32 3.68 -3 3 C-2.34 3 -1.68 3 -1 3 C-0.67 2.01 -0.34 1.02 0 0 Z " fill="#A38956" transform="translate(197,67)"/>
<path d="M0 0 C0.93423645 3.01031744 1.04449911 3.86650268 0 7 C-0.06802967 8.72795352 -0.08495645 10.45835365 -0.0625 12.1875 C-0.04896484 13.53908203 -0.04896484 13.53908203 -0.03515625 14.91796875 C-0.02355469 15.60503906 -0.01195313 16.29210937 0 17 C1.32 17 2.64 17 4 17 C4 16.34 4 15.68 4 15 C3.01 14.67 2.02 14.34 1 14 C1 13.34 1 12.68 1 12 C2.65 12.33 4.3 12.66 6 13 C6.625 15.375 6.625 15.375 7 18 C5 20 5 20 2.0625 20.3125 C-1 20 -1 20 -2.6640625 18.77734375 C-4.85879394 15.8574525 -4.45925869 13.12290745 -4.37109375 9.5859375 C-3.8081643 5.66320808 -2.24794443 3.23142011 0 0 Z " fill="#B49556" transform="translate(91,126)"/>
<path d="M0 0 C0.99 0.33 1.98 0.66 3 1 C4.80605647 5.58757658 5.56661406 11.12711909 5 16 C3.875 18.375 3.875 18.375 2 20 C-1.0625 20.375 -1.0625 20.375 -4 20 C-6 18 -6 18 -6.1875 15.4375 C-6 13 -6 13 -5 12 C-3.33382885 11.95936168 -1.66611905 11.957279 0 12 C0 12.66 0 13.32 0 14 C-0.99 14 -1.98 14 -3 14 C-3 15.32 -3 16.64 -3 18 C-1.35 17.34 0.3 16.68 2 16 C1.50130596 10.63108121 0.97772468 5.30764827 0 0 Z " fill="#BE9E5B" transform="translate(253,126)"/>
<path d="M0 0 C3.46464111 0.27173656 4.68165104 0.93690865 7.1875 3.25 C6.625 5.1875 6.625 5.1875 5.1875 7.25 C1.75 8.1875 1.75 8.1875 -1.8125 8.25 C-3.8125 7.0625 -3.8125 7.0625 -4.8125 5.25 C-4.36392822 1.43713984 -3.90613077 0.34721162 0 0 Z " fill="#AE8F4D" transform="translate(248.8125,181.75)"/>
<path d="M0 0 C5 2 5 2 6 4 C4.35 3.67 2.7 3.34 1 3 C1 23.13 1 43.26 1 64 C0.67 64 0.34 64 0 64 C0 42.88 0 21.76 0 0 Z " fill="#D2AE63" transform="translate(106,115)"/>
<path d="M0 0 C0 3 0 3 -1.35546875 4.4296875 C-1.96003906 4.90664062 -2.56460938 5.38359375 -3.1875 5.875 C-6.31980068 8.42980236 -9.17357139 11.10291067 -12 14 C-12.59167969 14.58136719 -13.18335937 15.16273438 -13.79296875 15.76171875 C-14.41816406 16.37660156 -15.04335937 16.99148437 -15.6875 17.625 C-16.26886719 18.19476563 -16.85023437 18.76453125 -17.44921875 19.3515625 C-19.20251898 21.12382974 -19.20251898 21.12382974 -21 24 C-21 23.01 -21 22.02 -21 21 C-21.99 20.67 -22.98 20.34 -24 20 C-23.26031982 19.5877417 -22.52063965 19.1754834 -21.75854492 18.75073242 C-19.05349577 17.03395152 -17.08318381 15.28468637 -14.86328125 12.98828125 C-14.12142578 12.23095703 -13.37957031 11.47363281 -12.61523438 10.69335938 C-11.85533203 9.90767578 -11.09542969 9.12199219 -10.3125 8.3125 C-8.79239396 6.74159677 -7.2678807 5.17494218 -5.73828125 3.61328125 C-5.06837158 2.92016846 -4.39846191 2.22705566 -3.70825195 1.51293945 C-2 0 -2 0 0 0 Z " fill="#B49452" transform="translate(101,163)"/>
<path d="M0 0 C1.875 1.5 1.875 1.5 3 3 C2.34 4.32 1.68 5.64 1 7 C-5.0546875 7.1953125 -5.0546875 7.1953125 -7 7 C-7.66 6.34 -8.32 5.68 -9 5 C-9 4.01 -9 3.02 -9 2 C-5.53076119 -0.31282587 -4.07794425 -0.42478586 0 0 Z " fill="#C09D55" transform="translate(98,182)"/>
<path d="M0 0 C2.20089122 3.30133683 2.11294139 6.13842368 2.00390625 10.02734375 C1.99911828 12.44526904 2.41482044 14.65928174 3 17 C0.36 16.34 -2.28 15.68 -5 15 C-5 14.01 -5 13.02 -5 12 C-4.01 12 -3.02 12 -2 12 C-2.02320313 11.38511719 -2.04640625 10.77023437 -2.0703125 10.13671875 C-2.08835938 9.32847656 -2.10640625 8.52023437 -2.125 7.6875 C-2.14820313 6.88699219 -2.17140625 6.08648437 -2.1953125 5.26171875 C-2 3 -2 3 0 0 Z " fill="#B69445" transform="translate(155,256)"/>
<path d="M0 0 C3.35738219 0 5.93294193 0.02186343 8.5 2.375 C9.71479636 3.87903359 10.86092325 5.4378376 12 7 C12.66 7.33 13.32 7.66 14 8 C14 8.66 14 9.32 14 10 C12.68 10 11.36 10 10 10 C10 11.65 10 13.3 10 15 C9.01 14.67 8.02 14.34 7 14 C7 11.03 7 8.06 7 5 C5.88625 4.87625 4.7725 4.7525 3.625 4.625 C0 4 0 4 -2 2 C-1.34 1.34 -0.68 0.68 0 0 Z " fill="#BFA065" transform="translate(182,63)"/>
<path d="M0 0 C3.63 0 7.26 0 11 0 C11 4.95 11 9.9 11 15 C7.23312136 13.11656068 6.20578354 12.30867531 4 9 C5.65 9.33 7.3 9.66 9 10 C9 7.36 9 4.72 9 2 C6.36 2 3.72 2 1 2 C0.67 2.99 0.34 3.98 0 5 C0 3.35 0 1.7 0 0 Z " fill="#BE9D5A" transform="translate(213,135)"/>
<path d="M0 0 C0.99 0 1.98 0 3 0 C3.48801743 7.19825708 3.48801743 7.19825708 1.25 10.875 C-2.25054644 14.18107164 -3.85834421 14.96194481 -8.75 15.125 C-10.35875 15.063125 -10.35875 15.063125 -12 15 C-12.33 14.34 -12.66 13.68 -13 13 C-12.38511719 12.91363281 -11.77023438 12.82726562 -11.13671875 12.73828125 C-5.96028236 11.92710794 -5.96028236 11.92710794 -2 8.75 C-0.93691493 5.82651606 -0.35894992 3.08696933 0 0 Z " fill="#A18651" transform="translate(189,105)"/>
<path d="M0 0 C0.99 0 1.98 0 3 0 C3 2.64 3 5.28 3 8 C-3.48292295 8.3669579 -3.48292295 8.3669579 -5.9375 6.625 C-7 5 -7 5 -7 3 C-5.5459375 2.5359375 -5.5459375 2.5359375 -4.0625 2.0625 C-1.15934208 1.30476658 -1.15934208 1.30476658 0 0 Z " fill="#282319" transform="translate(153,81)"/>
<path d="M0 0 C4.14184016 0.10189766 7.1291666 0.2541666 10.1875 3.3125 C10.5 6.5 10.5 6.5 10.1875 9.3125 C9.1975 8.9825 8.2075 8.6525 7.1875 8.3125 C6.8153958 6.98946283 6.48119827 5.65512065 6.1875 4.3125 C3.12320224 2.78035112 0.5709358 3.08311452 -2.8125 3.3125 C-5.68396994 4.68247157 -5.68396994 4.68247157 -7.8125 6.3125 C-6.79116204 1.20581022 -5.15481608 0.02318508 0 0 Z " fill="#C5A04D" transform="translate(163.8125,251.6875)"/>
<path d="M0 0 C1.2065625 0.0309375 1.2065625 0.0309375 2.4375 0.0625 C2.81813221 2.3885857 3.15019945 4.72305264 3.4375 7.0625 C2.4375 8.0625 2.4375 8.0625 0 8.25 C-2.5625 8.0625 -2.5625 8.0625 -4.5625 6.0625 C-3.83457637 0.09352625 -3.83457637 0.09352625 0 0 Z " fill="#D5B372" transform="translate(172.5625,47.9375)"/>
<path d="M0 0 C0.33 0 0.66 0 1 0 C1 1.65 1 3.3 1 5 C1.66 5 2.32 5 3 5 C3.33 3.35 3.66 1.7 4 0 C4.185625 0.639375 4.37125 1.27875 4.5625 1.9375 C5.94246056 4.42126213 5.94246056 4.42126213 9.625 4.75 C10.73875 4.8325 11.8525 4.915 13 5 C13 5.33 13 5.66 13 6 C12.15695313 6.04898438 11.31390625 6.09796875 10.4453125 6.1484375 C9.34960938 6.22320312 8.25390625 6.29796875 7.125 6.375 C5.48917969 6.47941406 5.48917969 6.47941406 3.8203125 6.5859375 C0.86953526 6.73253491 0.86953526 6.73253491 -1 9 C-3.68839385 9.26991906 -6.29141936 9.08737357 -9 9 C-9 8.67 -9 8.34 -9 8 C-5.535 7.505 -5.535 7.505 -2 7 C-4.31 6.67 -6.62 6.34 -9 6 C-9 5.67 -9 5.34 -9 5 C-6.36 4.67 -3.72 4.34 -1 4 C-0.67 2.68 -0.34 1.36 0 0 Z " fill="#6F5D3A" transform="translate(170,112)"/>
<path d="M0 0 C0.66 0.33 1.32 0.66 2 1 C2.5625 3.21484375 2.5625 3.21484375 3 5.9375 C3.5548011 9.92315275 3.5548011 9.92315275 6 13 C1.71 13.99 -2.58 14.98 -7 16 C-7.33 14.68 -7.66 13.36 -8 12 C-5.03 12 -2.06 12 1 12 C1 9.03 1 6.06 1 3 C0.34 3 -0.32 3 -1 3 C-0.67 2.01 -0.34 1.02 0 0 Z " fill="#CFAD6B" transform="translate(155,77)"/>
<path d="M0 0 C1.32 0.33 2.64 0.66 4 1 C4 1.66 4 2.32 4 3 C5.65 3.33 7.3 3.66 9 4 C8.34 5.32 7.68 6.64 7 8 C4.69 8 2.38 8 0 8 C0 5.36 0 2.72 0 0 Z " fill="#201D16" transform="translate(189,81)"/>
<path d="M0 0 C4.31612591 0.43161259 6.37088082 1.73763869 9.75 4.375 C7.77 5.365 7.77 5.365 5.75 6.375 C5.09 5.715 4.43 5.055 3.75 4.375 C0.75 4.04166667 0.75 4.04166667 -2.25 4.375 C-4.20216435 6.32716435 -5.09826645 7.90699953 -6.25 10.375 C-5.30520703 0.61213927 -5.30520703 0.61213927 0 0 Z " fill="#B99B62" transform="translate(143.25,66.625)"/>
<path d="M0 0 C6.75 0.75 6.75 0.75 9 3 C8.525625 3.598125 8.05125 4.19625 7.5625 4.8125 C5.83534256 7.00382924 5.83534256 7.00382924 5 10 C1.7 9.67 -1.6 9.34 -5 9 C-1 6 -1 6 1.6875 4.9375 C4.15938605 4.23196154 4.15938605 4.23196154 5 2 C3.35 1.67 1.7 1.34 0 1 C0 0.67 0 0.34 0 0 Z " fill="#9B8251" transform="translate(193,83)"/>
<path d="M0 0 C2.47598865 1.19805902 2.96367818 2.42179364 3.9375 4.9375 C2.6875 6.5 2.6875 6.5 0.9375 7.9375 C-1.125 7.875 -1.125 7.875 -3.0625 6.9375 C-4.3125 4.875 -4.3125 4.875 -5.0625 2.9375 C-2.64829882 -0.08025148 -2.64829882 -0.08025148 0 0 Z " fill="#231E15" transform="translate(274.0625,182.0625)"/>
<path d="M0 0 C2.47598865 1.19805902 2.96367818 2.42179364 3.9375 4.9375 C2.6875 6.5 2.6875 6.5 0.9375 7.9375 C-1.125 7.875 -1.125 7.875 -3.0625 6.9375 C-4.3125 4.875 -4.3125 4.875 -5.0625 2.9375 C-2.64829882 -0.08025148 -2.64829882 -0.08025148 0 0 Z " fill="#231E15" transform="translate(72.0625,182.0625)"/>
<path d="M0 0 C0 2.64 0 5.28 0 8 C-2.31 8 -4.62 8 -7 8 C-6.65930765 4.84859577 -6.41923159 3.39218439 -4.0625 1.1875 C-2 0 -2 0 0 0 Z " fill="#41371F" transform="translate(222,227)"/>
<path d="M0 0 C0.99 0 1.98 0 3 0 C2.51594564 4.31180732 1.37995134 6.0589554 -1.9375 8.8125 C-2.64777344 9.41707031 -3.35804687 10.02164063 -4.08984375 10.64453125 C-6 12 -6 12 -8 12 C-8 9.03 -8 6.06 -8 3 C-7.67 3 -7.34 3 -7 3 C-7 4.65 -7 6.3 -7 8 C-6.01 8 -5.02 8 -4 8 C-3.34 6.68 -2.68 5.36 -2 4 C-1.34 4 -0.68 4 0 4 C0 2.68 0 1.36 0 0 Z " fill="#A2874E" transform="translate(130,137)"/>
<path d="M0 0 C0.66 0 1.32 0 2 0 C3.26171875 1.57421875 3.26171875 1.57421875 4.6875 3.6875 C7.66345725 7.82444798 10.72475092 10.26384059 15 13 C13 14 13 14 10.8125 13.5 C5.99493033 10.93062951 1.75018096 7.35056701 0.0625 2.0625 C0.041875 1.381875 0.02125 0.70125 0 0 Z " fill="#B8995C" transform="translate(198,105)"/>
<path d="M0 0 C0.33 0.66 0.66 1.32 1 2 C1.99 2.33 2.98 2.66 4 3 C1.525 4.485 1.525 4.485 -1 6 C0.36983503 9.16115776 0.9890638 9.9927092 4 12 C2.3125 12.8125 2.3125 12.8125 0 13 C-2.8125 10.8125 -2.8125 10.8125 -5 8 C-5.09328009 4.92175717 -4.0196554 4.02144226 -1.9375 1.75 C-1.298125 1.1725 -0.65875 0.595 0 0 Z " fill="#B49450" transform="translate(69,179)"/>
<path d="M0 0 C4.62 0 9.24 0 14 0 C14 0.99 14 1.98 14 3 C9.38 3 4.76 3 0 3 C0 2.01 0 1.02 0 0 Z " fill="#9B824E" transform="translate(191,119)"/>
<path d="M0 0 C4.62 0 9.24 0 14 0 C14 0.99 14 1.98 14 3 C9.38 3 4.76 3 0 3 C0 2.01 0 1.02 0 0 Z " fill="#9B814D" transform="translate(140,119)"/>
<path d="M0 0 C0.99 0 1.98 0 3 0 C1.59012409 5.169545 -1.86322045 8.75341352 -6 12 C-8.2265625 12.703125 -8.2265625 12.703125 -10 13 C-10 12.01 -10 11.02 -10 10 C-8.63875 9.1028125 -8.63875 9.1028125 -7.25 8.1875 C-3.73480207 5.8215014 -2.29935381 3.48867474 0 0 Z " fill="#B09258" transform="translate(145,105)"/>
<path d="M0 0 C2.31 0 4.62 0 7 0 C7 2.64 7 5.28 7 8 C5.68 7.34 4.36 6.68 3 6 C3 5.34 3 4.68 3 4 C2.01 4 1.02 4 0 4 C0 2.68 0 1.36 0 0 Z " fill="#2E281B" transform="translate(215,137)"/>
<path d="M0 0 C2.875 0.4375 2.875 0.4375 4.875 1.4375 C4.875 3.0875 4.875 4.7375 4.875 6.4375 C3.885 6.7675 2.895 7.0975 1.875 7.4375 C1.875 5.7875 1.875 4.1375 1.875 2.4375 C-1.00937779 3.73049694 -2.99719421 5.09691363 -5.125 7.4375 C-5.785 7.1075 -6.445 6.7775 -7.125 6.4375 C-3.93654193 0.55111587 -3.93654193 0.55111587 0 0 Z " fill="#AF9258" transform="translate(179.125,103.5625)"/>
<path d="M0 0 C0.99 0.33 1.98 0.66 3 1 C3.125 3.375 3.125 3.375 3 6 C1 8 1 8 -1.5 8.25 C-4 8 -4 8 -6 6 C-5.67 5.01 -5.34 4.02 -5 3 C-2.525 3.99 -2.525 3.99 0 5 C0 3.35 0 1.7 0 0 Z " fill="#A68640" transform="translate(181,260)"/>
<path d="M0 0 C-0.33 0.66 -0.66 1.32 -1 2 C-3.58203125 2.59765625 -3.58203125 2.59765625 -6.8125 3.0625 C-11.08331202 3.6638212 -11.08331202 3.6638212 -15.26171875 4.68359375 C-15.83535156 4.78800781 -16.40898438 4.89242187 -17 5 C-17.66 4.34 -18.32 3.68 -19 3 C-12.47059106 0.04328652 -7.12600133 -0.35368021 0 0 Z " fill="#BD994A" transform="translate(126,250)"/>
<path d="M0 0 C2.46800047 1.15173355 4.04783565 2.04783565 6 4 C6 5.32 6 6.64 6 8 C4.02 8 2.04 8 0 8 C0 5.36 0 2.72 0 0 Z " fill="#201C13" transform="translate(124,227)"/>
<path d="M0 0 C0.66 0.99 1.32 1.98 2 3 C1.01 3.33 0.02 3.66 -1 4 C-1.33 4.66 -1.66 5.32 -2 6 C-2.33 6.66 -2.66 7.32 -3 8 C-3.99 8.33 -4.98 8.66 -6 9 C-6.33 9.99 -6.66 10.98 -7 12 C-7.99 11.34 -8.98 10.68 -10 10 C-6.7 6.7 -3.4 3.4 0 0 Z " fill="#A28547" transform="translate(270,194)"/>
<path d="M0 0 C3 2 6 4 9 6 C9.1875 8.625 9.1875 8.625 9 11 C8.01 11 7.02 11 6 11 C5.7525 10.236875 5.505 9.47375 5.25 8.6875 C3.89004442 5.7635955 2.68414174 4.69995644 0 3 C0 5.64 0 8.28 0 11 C-0.33 11 -0.66 11 -1 11 C-1.0270043 9.54176788 -1.04639787 8.08339325 -1.0625 6.625 C-1.07410156 5.81289062 -1.08570312 5.00078125 -1.09765625 4.1640625 C-1 2 -1 2 0 0 Z " fill="#9B7F41" transform="translate(124,224)"/>
<path d="M0 0 C0.66 0.33 1.32 0.66 2 1 C2 1.66 2 2.32 2 3 C1.34 3 0.68 3 0 3 C0.66 5.97 1.32 8.94 2 12 C-3.75 11.125 -3.75 11.125 -6 10 C-5.67 8.02 -5.34 6.04 -5 4 C-4.67 5.32 -4.34 6.64 -4 8 C-3.34 8 -2.68 8 -2 8 C-2.061875 6.576875 -2.061875 6.576875 -2.125 5.125 C-2 2 -2 2 0 0 Z " fill="#8F7439" transform="translate(175,252)"/>
<path d="M0 0 C2.08901197 3.39464446 2.34361606 6.04841529 2 10 C1.34 10.66 0.68 11.32 0 12 C-1.32 12 -2.64 12 -4 12 C-4 10.68 -4 9.36 -4 8 C-3.01 8 -2.02 8 -1 8 C-0.67 5.36 -0.34 2.72 0 0 Z " fill="#3D3421" transform="translate(254,132)"/>
<path d="M0 0 C1.14551282 3.45290293 0.88298498 6.06685719 0.25 9.625 C0.01023437 11.06746094 0.01023437 11.06746094 -0.234375 12.5390625 C-1 15 -1 15 -4 17 C-4.50604984 10.01370081 -4.0333905 5.79799884 0 0 Z " fill="#9F844E" transform="translate(91,126)"/>
<path d="M0 0 C0.99 0.33 1.98 0.66 3 1 C2.59007812 1.47050781 2.18015625 1.94101562 1.7578125 2.42578125 C0.94957031 3.35970703 0.94957031 3.35970703 0.125 4.3125 C-0.40867188 4.92738281 -0.94234375 5.54226563 -1.4921875 6.17578125 C-3.1640447 8.13498212 -3.1640447 8.13498212 -5 11 C-5.66 11 -6.32 11 -7 11 C-6.40716379 7.60807637 -5.23256811 5.7892243 -2.9375 3.25 C-2.38964844 2.63640625 -1.84179688 2.0228125 -1.27734375 1.390625 C-0.85582031 0.93171875 -0.43429688 0.4728125 0 0 Z " fill="#A38440" transform="translate(204,256)"/>
<path d="M0 0 C3.47214266 0.27232491 4.7550428 0.8175428 7.1875 3.25 C7.1875 3.91 7.1875 4.57 7.1875 5.25 C3.91474974 5.25 1.340868 4.95074844 -1.8125 4.25 C-1.8125 3.59 -1.8125 2.93 -1.8125 2.25 C-2.4725 1.92 -3.1325 1.59 -3.8125 1.25 C-2.8125 0.25 -2.8125 0.25 0 0 Z " fill="#846D3D" transform="translate(248.8125,181.75)"/>
<path d="M0 0 C0.66 0 1.32 0 2 0 C3.5078125 1.64453125 3.5078125 1.64453125 5.125 3.8125 C5.66382813 4.52019531 6.20265625 5.22789062 6.7578125 5.95703125 C8 8 8 8 8 11 C4.51127585 9.83709195 3.90023136 8.86032391 1.8125 5.9375 C1.28269531 5.20402344 0.75289062 4.47054688 0.20703125 3.71484375 C-0.19128906 3.14894531 -0.58960938 2.58304687 -1 2 C-0.67 1.34 -0.34 0.68 0 0 Z " fill="#997D3C" transform="translate(140,256)"/>
<path d="M0 0 C7.26153846 -0.49230769 7.26153846 -0.49230769 11 2 C11.66 2.66 12.32 3.32 13 4 C12.67 5.32 12.34 6.64 12 8 C11.34 7.195625 10.68 6.39125 10 5.5625 C6.12020772 2.24851076 3.99985175 2.25422975 -1 2 C-0.67 1.34 -0.34 0.68 0 0 Z " fill="#BF9B4B" transform="translate(177,252)"/>
<path d="M0 0 C1.98 0 3.96 0 6 0 C6 1.32 6 2.64 6 4 C2.78571429 7 2.78571429 7 0 7 C0 4.69 0 2.38 0 0 Z " fill="#1F1C14" transform="translate(124,137)"/>
<path d="M0 0 C0.33 0 0.66 0 1 0 C1 2.64 1 5.28 1 8 C1.99 8 2.98 8 4 8 C4 5.36 4 2.72 4 0 C4.33 0 4.66 0 5 0 C5.0272415 1.41655793 5.04650467 2.83327045 5.0625 4.25 C5.07410156 5.03890625 5.08570313 5.8278125 5.09765625 6.640625 C5.00385306 8.90691002 4.63241063 10.8288895 4 13 C3.01 13 2.02 13 1 13 C0.1276588 10.00519083 -0.10829766 7.36424089 -0.0625 4.25 C-0.05347656 3.45078125 -0.04445312 2.6515625 -0.03515625 1.828125 C-0.02355469 1.22484375 -0.01195312 0.6215625 0 0 Z " fill="#DCB772" transform="translate(170,73)"/>
<path d="M0 0 C2 1 2 1 3 3 C1.576875 3.86625 1.576875 3.86625 0.125 4.75 C-2.76134098 6.82816551 -3.84095741 7.75468075 -5 11 C-5.66 11 -6.32 11 -7 11 C-7.4375 8.875 -7.4375 8.875 -7 6 C-4.87310854 3.723853 -2.4976567 1.8541278 0 0 Z " fill="#9D8041" transform="translate(219,224)"/>
<path d="M0 0 C0 1.66666667 0 3.33333333 0 5 C-3 5 -6 5 -9 5 C-9 4.01 -9 3.02 -9 2 C-5.5647952 -0.29013653 -4.014669 -0.17842973 0 0 Z " fill="#756136" transform="translate(98,182)"/>
<path d="M0 0 C3.875 0.875 3.875 0.875 5 2 C6.34747084 2.23075082 7.70377565 2.41153063 9.0625 2.5625 C10.361875 2.706875 11.66125 2.85125 13 3 C12.67 3.66 12.34 4.32 12 5 C10.56344146 5.08131463 9.1255517 5.13933559 7.6875 5.1875 C6.48673828 5.23970703 6.48673828 5.23970703 5.26171875 5.29296875 C3 5 3 5 1.20703125 3.61328125 C0 2 0 2 0 0 Z " fill="#B5975A" transform="translate(156,115)"/>
<path d="M0 0 C1.99954746 -0.04254356 4.00041636 -0.04080783 6 0 C7 1 7 1 7.0625 3.5625 C7.041875 4.366875 7.02125 5.17125 7 6 C6.01 6.33 5.02 6.66 4 7 C4 5.35 4 3.7 4 2 C2.35 2.33 0.7 2.66 -1 3 C-0.67 2.01 -0.34 1.02 0 0 Z " fill="#A5853F" transform="translate(207,265)"/>
<path d="M0 0 C1.4540625 0.0309375 1.4540625 0.0309375 2.9375 0.0625 C3.2675 1.0525 3.5975 2.0425 3.9375 3.0625 C2.2875 2.7325 0.6375 2.4025 -1.0625 2.0625 C-1.0625 3.7125 -1.0625 5.3625 -1.0625 7.0625 C-2.0525 6.7325 -3.0425 6.4025 -4.0625 6.0625 C-4.105221 4.39638095 -4.10313832 2.72867115 -4.0625 1.0625 C-3.0625 0.0625 -3.0625 0.0625 0 0 Z " fill="#A3843F" transform="translate(135.0625,264.9375)"/>
<path d="M0 0 C0.33 0 0.66 0 1 0 C1.04898438 0.60328125 1.09796875 1.2065625 1.1484375 1.828125 C1.22320312 2.62734375 1.29796875 3.4265625 1.375 4.25 C1.44460937 5.03890625 1.51421875 5.8278125 1.5859375 6.640625 C2.01673834 9.09537697 2.87909948 10.79465101 4 13 C4 13.99 4 14.98 4 16 C3.01 16 2.02 16 1 16 C-0.79074734 10.10106757 -1.08360869 6.06820868 0 0 Z " fill="#967B3E" transform="translate(89,230)"/>
<path d="M0 0 C0.99 0 1.98 0 3 0 C3 1.98 3 3.96 3 6 C0.69 6.33 -1.62 6.66 -4 7 C-4.33 6.01 -4.66 5.02 -5 4 C-2.525 4.495 -2.525 4.495 0 5 C0 3.35 0 1.7 0 0 Z " fill="#AE9158" transform="translate(211,100)"/>
<path d="M0 0 C1.2065625 0.0309375 1.2065625 0.0309375 2.4375 0.0625 C2.4375 0.7225 2.4375 1.3825 2.4375 2.0625 C1.4475 2.0625 0.4575 2.0625 -0.5625 2.0625 C-0.5625 3.3825 -0.5625 4.7025 -0.5625 6.0625 C0.4275 6.3925 1.4175 6.7225 2.4375 7.0625 C0.5625 7.6875 0.5625 7.6875 -1.5625 8.0625 C-3.5625 6.0625 -3.5625 6.0625 -3.75 3.5 C-3.4919783 0.14571793 -3.38163728 0.08247896 0 0 Z " fill="#AA8D51" transform="translate(250.5625,137.9375)"/>
<path d="M0 0 C0.99 0 1.98 0 3 0 C2 3 2 3 0.375 4.1875 C-2.80382728 5.27499354 -5.66661533 5.1282071 -9 5 C-9.33 4.34 -9.66 3.68 -10 3 C-9.04287109 2.80083984 -9.04287109 2.80083984 -8.06640625 2.59765625 C-7.24011719 2.42105469 -6.41382813 2.24445313 -5.5625 2.0625 C-4.73878906 1.88847656 -3.91507813 1.71445313 -3.06640625 1.53515625 C-1.02338796 1.19247006 -1.02338796 1.19247006 0 0 Z " fill="#BE9E5E" transform="translate(186,115)"/>
<path d="M0 0 C0.99 0 1.98 0 3 0 C3 1.65 3 3.3 3 5 C4.65 4.67 6.3 4.34 8 4 C7.67 4.99 7.34 5.98 7 7 C4.625 7.125 4.625 7.125 2 7 C0 5 0 5 -0.125 2.375 C-0.08375 1.59125 -0.0425 0.8075 0 0 Z " fill="#B09259" transform="translate(131,100)"/>
<path d="M0 0 C1.71928713 2.62949796 2.01045637 3.87190947 1.75 7.0625 C1 10 1 10 -1 13 C-2.32 12.67 -3.64 12.34 -5 12 C-4.01 12 -3.02 12 -2 12 C-2.02320313 11.38511719 -2.04640625 10.77023437 -2.0703125 10.13671875 C-2.08835938 9.32847656 -2.10640625 8.52023437 -2.125 7.6875 C-2.14820313 6.88699219 -2.17140625 6.08648437 -2.1953125 5.26171875 C-2 3 -2 3 0 0 Z " fill="#7B6432" transform="translate(155,256)"/>
<path d="M0 0 C1.32 0 2.64 0 4 0 C4 0.99 4 1.98 4 3 C3.01 3 2.02 3 1 3 C1 6.3 1 9.6 1 13 C-1 11 -1 11 -1.23046875 8.65234375 C-1.21628906 7.75644531 -1.20210938 6.86054688 -1.1875 5.9375 C-1.18105469 5.03902344 -1.17460938 4.14054688 -1.16796875 3.21484375 C-1 1 -1 1 0 0 Z " fill="#272115" transform="translate(91,228)"/>
<path d="M0 0 C0.99 0 1.98 0 3 0 C2.67 3.3 2.34 6.6 2 10 C2.66 10.33 3.32 10.66 4 11 C2.35 11 0.7 11 -1 11 C-1.0270043 9.54176788 -1.04639787 8.08339325 -1.0625 6.625 C-1.07410156 5.81289062 -1.08570313 5.00078125 -1.09765625 4.1640625 C-1 2 -1 2 0 0 Z " fill="#9E8554" transform="translate(170,70)"/>
<path d="M0 0 C-7.5 5 -7.5 5 -11 5 C-10 2 -10 2 -7.75 0.25 C-4.58923143 -1.18671298 -3.25229215 -1.02214896 0 0 Z " fill="#B08F45" transform="translate(217,252)"/>
<path d="M0 0 C0.33 1.32 0.66 2.64 1 4 C-1.4375 6.75 -1.4375 6.75 -4 9 C-4.99 8.34 -5.98 7.68 -7 7 C-4.69 4.69 -2.38 2.38 0 0 Z " fill="#9E8248" transform="translate(77,171)"/>
<path d="M0 0 C1.66832577 2.50248865 2.62381674 4.41149187 3.625 7.1875 C3.88539063 7.90292969 4.14578125 8.61835937 4.4140625 9.35546875 C4.60742188 9.89816406 4.80078125 10.44085938 5 11 C4.01 11.33 3.02 11.66 2 12 C-0.56295176 9.33025858 -0.99337817 8.09767206 -1.25 4.3125 C-1 1 -1 1 0 0 Z " fill="#977F50" transform="translate(137,70)"/>
<path d="M0 0 C2.475 0.495 2.475 0.495 5 1 C5 4.3 5 7.6 5 11 C4.67 11 4.34 11 4 11 C3.67 8.36 3.34 5.72 3 3 C2.01 3 1.02 3 0 3 C0 2.01 0 1.02 0 0 Z " fill="#241F14" transform="translate(250,228)"/>
<path d="M0 0 C0.66 0.99 1.32 1.98 2 3 C-3.75 8 -3.75 8 -6 8 C-4.55746343 4.63408134 -2.66735273 2.48952921 0 0 Z " fill="#A48645" transform="translate(250,214)"/>
<path d="M0 0 C0.33 0.66 0.66 1.32 1 2 C3.02463255 2.65213292 3.02463255 2.65213292 5 3 C4.67 3.99 4.34 4.98 4 6 C2.35 5.67 0.7 5.34 -1 5 C-0.67 3.35 -0.34 1.7 0 0 Z " fill="#352E1E" transform="translate(91,138)"/>
<path d="M0 0 C2.33944736 0.28730055 4.6739143 0.61936779 7 1 C6.01 2.485 6.01 2.485 5 4 C1.875 4.1875 1.875 4.1875 -1 4 C-1 1 -1 1 0 0 Z " fill="#A58B58" transform="translate(182,63)"/>
<path d="M0 0 C0.33 0 0.66 0 1 0 C1.09796875 0.61488281 1.1959375 1.22976562 1.296875 1.86328125 C2.13291046 6.99409305 2.13291046 6.99409305 5.125 11.0625 C5.74375 11.371875 6.3625 11.68125 7 12 C4.625 12.125 4.625 12.125 2 12 C0 10 0 10 -0.1953125 7.6171875 C-0.17210938 6.71226562 -0.14890625 5.80734375 -0.125 4.875 C-0.10695313 3.96492187 -0.08890625 3.05484375 -0.0703125 2.1171875 C-0.04710938 1.41851562 -0.02390625 0.71984375 0 0 Z " fill="#C3A15D" transform="translate(88,134)"/>
<path d="M0 0 C2.97 0 5.94 0 9 0 C9.33 0.66 9.66 1.32 10 2 C7.03 2.66 4.06 3.32 1 4 C0.67 2.68 0.34 1.36 0 0 Z " fill="#C7A666" transform="translate(147,89)"/>
<path d="M0 0 C0.66 0.33 1.32 0.66 2 1 C-0.97 3.97 -3.94 6.94 -7 10 C-7 7 -7 7 -4.625 4.4375 C-3.75875 3.633125 -2.8925 2.82875 -2 2 C-1.34 1.34 -0.68 0.68 0 0 Z " fill="#2B2516" transform="translate(208,256)"/>
<path d="M0 0 C0.33 0 0.66 0 1 0 C1 2.31 1 4.62 1 7 C-0.65 7 -2.3 7 -4 7 C-2.79618552 4.50638429 -1.54571278 2.31856917 0 0 Z " fill="#0E0E0D" transform="translate(220,227)"/>
<path d="M0 0 C0.33 0.66 0.66 1.32 1 2 C1.99 2.33 2.98 2.66 4 3 C-0.43076923 6.07692308 -0.43076923 6.07692308 -3.3125 5.6875 C-3.869375 5.460625 -4.42625 5.23375 -5 5 C-3.35 3.35 -1.7 1.7 0 0 Z " fill="#997E46" transform="translate(69,179)"/>
<path d="M0 0 C0.33 0 0.66 0 1 0 C1 1.65 1 3.3 1 5 C2.65 4.67 4.3 4.34 6 4 C4.71937515 5.7074998 3.38232443 7.37373596 2 9 C1.34 9 0.68 9 0 9 C0 6.03 0 3.06 0 0 Z " fill="#C8A55E" transform="translate(122,140)"/>
<path d="M0 0 C0.99 0.33 1.98 0.66 3 1 C3.625 4.375 3.625 4.375 4 8 C3.34 8.66 2.68 9.32 2 10 C1.34 6.7 0.68 3.4 0 0 Z " fill="#AE9155" transform="translate(253,126)"/>
<path d="M0 0 C0.185625 0.639375 0.37125 1.27875 0.5625 1.9375 C1.94246056 4.42126213 1.94246056 4.42126213 5.625 4.75 C6.73875 4.8325 7.8525 4.915 9 5 C9 5.33 9 5.66 9 6 C4.545 6.495 4.545 6.495 0 7 C-0.38133299 5.0085944 -0.71325582 3.00720923 -1 1 C-0.67 0.67 -0.34 0.34 0 0 Z " fill="#917949" transform="translate(174,112)"/>
<path d="M0 0 C1.98 0.99 1.98 0.99 4 2 C4.33 1.34 4.66 0.68 5 0 C4 4 4 4 3 8 C2.34 8 1.68 8 1 8 C0.67 5.36 0.34 2.72 0 0 Z " fill="#D3AF68" transform="translate(170,109)"/>
<path d="M0 0 C-1.1875 1.5 -1.1875 1.5 -3 3 C-5.6875 3.1875 -5.6875 3.1875 -8 3 C-8 2.01 -8 1.02 -8 0 C-4.94736336 -0.98120464 -3.05263664 -0.98120464 0 0 Z " fill="#927A4C" transform="translate(156,97)"/>
<path d="M0 0 C3.625 0.375 3.625 0.375 7 1 C7 1.33 7 1.66 7 2 C5.906875 2.28875 4.81375 2.5775 3.6875 2.875 C-0.04013845 3.81893204 -0.04013845 3.81893204 -3 6 C-2.42655063 3.13275314 -2.1385485 2.1385485 0 0 Z " fill="#B08F45" transform="translate(159,252)"/>
<path d="M0 0 C0.598125 0.61875 1.19625 1.2375 1.8125 1.875 C4.00811144 4.13676954 4.00811144 4.13676954 7 6 C6.01 6 5.02 6 4 6 C3.67 6.99 3.34 7.98 3 9 C2.54625 8.21625 2.0925 7.4325 1.625 6.625 C0.11571258 3.96301969 0.11571258 3.96301969 -2 2 C-1.34 2 -0.68 2 0 2 C0 1.34 0 0.68 0 0 Z " fill="#B0914E" transform="translate(268,185)"/>
<path d="M0 0 C1.98 1.65 3.96 3.3 6 5 C5.01 5.66 4.02 6.32 3 7 C1.68 6.01 0.36 5.02 -1 4 C-0.67 2.68 -0.34 1.36 0 0 Z " fill="#9E8248" transform="translate(273,177)"/>
<path d="M0 0 C0.99 0 1.98 0 3 0 C3 1.65 3 3.3 3 5 C3.99 4.67 4.98 4.34 6 4 C6 4.66 6 5.32 6 6 C4.68 6 3.36 6 2 6 C1.67 5.01 1.34 4.02 1 3 C0.01 3.33 -0.98 3.66 -2 4 C-1.34 2.68 -0.68 1.36 0 0 Z " fill="#3C3322" transform="translate(178,106)"/>
<path d="M0 0 C-1.98 0.99 -1.98 0.99 -4 2 C-4.66 1.34 -5.32 0.68 -6 0 C-8.57061311 -0.64767793 -8.57061311 -0.64767793 -11 -1 C-11 -1.33 -11 -1.66 -11 -2 C-6.38619749 -3.49270081 -4.10342037 -2.38570952 0 0 Z " fill="#AF935D" transform="translate(153,71)"/>
<path d="M0 0 C0.33 0.66 0.66 1.32 1 2 C3.01669827 3.13350534 3.01669827 3.13350534 5 4 C4.01 5.485 4.01 5.485 3 7 C2.34 5.68 1.68 4.36 1 3 C0.01 3 -0.98 3 -2 3 C-2 2.34 -2 1.68 -2 1 C-1.34 0.67 -0.68 0.34 0 0 Z " fill="#B69652" transform="translate(72,178)"/>
<path d="M0 0 C0.5775 0.61875 1.155 1.2375 1.75 1.875 C3.80249821 3.81347053 5.43366582 4.90014249 8 6 C5.69 6 3.38 6 1 6 C0.34 4.35 -0.32 2.7 -1 1 C-0.67 0.67 -0.34 0.34 0 0 Z " fill="#A18754" transform="translate(145,84)"/>
<path d="M0 0 C2.0625 0.4375 2.0625 0.4375 4 1 C3.01 1.66 2.02 2.32 1 3 C0.27617533 5.05925139 0.27617533 5.05925139 0 7 C-0.66 6.34 -1.32 5.68 -2 5 C-1.46428571 1.46428571 -1.46428571 1.46428571 0 0 Z " fill="#30291A" transform="translate(76,189)"/>
</svg>
